<svg width="741" height="737" viewBox="0 0 741 737" fill="none" xmlns="http://www.w3.org/2000/svg">
<path d="M367.829 0C179.717 1.34188e-05 191.464 81.561 191.464 81.561L191.674 166.057H371.184V191.427H120.373C120.373 191.427 0 177.778 0 367.549C-1.34213e-05 557.319 105.064 550.589 105.064 550.589H167.767V462.528C167.767 462.528 164.387 357.485 271.153 357.485C377.919 357.485 449.196 357.485 449.196 357.485C449.196 357.485 549.227 359.101 549.227 260.827C549.227 162.554 549.227 98.3345 549.227 98.3345C549.227 98.3345 564.414 0 367.829 0ZM268.846 56.8201C286.706 56.8201 301.142 71.2525 301.142 89.1091C301.142 106.966 286.706 121.398 268.846 121.398C250.986 121.398 236.551 106.966 236.551 89.1091C236.551 71.2525 250.986 56.8201 268.846 56.8201Z" fill="#FDFAFF"/>
<path d="M373.171 737C561.283 737 549.536 655.439 549.536 655.439L549.326 570.943H369.816V545.573H620.627C620.627 545.573 741 559.221 741 369.451C741 179.681 635.936 186.411 635.936 186.411H573.233V274.471C573.233 274.471 576.613 379.515 469.847 379.515C363.081 379.515 291.804 379.515 291.804 379.515C291.804 379.515 191.773 377.899 191.773 476.172C191.773 574.446 191.773 638.665 191.773 638.665C191.773 638.665 176.586 737 373.171 737ZM472.154 680.18C454.294 680.18 439.858 665.747 439.858 647.891C439.858 630.034 454.294 615.602 472.154 615.602C490.014 615.602 504.449 630.034 504.449 647.891C504.449 665.747 490.014 680.18 472.154 680.18Z" fill="#FDFAFF"/>
</svg>
