<svg width="512" height="512" viewBox="0 0 512 512" fill="none" xmlns="http://www.w3.org/2000/svg">
<path fill-rule="evenodd" clip-rule="evenodd" d="M128 51.2H384C398.139 51.2 409.6 62.6614 409.6 76.8V435.2C409.6 449.338 398.138 460.8 384 460.8H128C113.862 460.8 102.4 449.339 102.4 435.2V76.8C102.4 62.6615 113.862 51.2 128 51.2ZM76.8 76.8C76.8 48.523 99.7231 25.6 128 25.6H384C412.277 25.6 435.2 48.523 435.2 76.8V435.2C435.2 463.477 412.277 486.4 384 486.4H128C99.723 486.4 76.8 463.477 76.8 435.2V76.8ZM128 128H384V102.4H128V128ZM384 179.2H128V153.6H384V179.2ZM128 230.4H384V204.8H128V230.4ZM384 281.6H128V256H384V281.6ZM128 332.8H281.6V307.2H128V332.8Z" fill="#FDFAFF"/>
</svg>
